# xmcd
# 
# Track frame offsets:
#   150
#   15552
#   31437
#   50052
#   63110
#   77722
#   89112
#   106302
#   123732
#   141652
#   156925
#   170615
#   184447
#   201415
# 
# Disc length: 2915 seconds
# 
# Revision: 2
# Processed by: cddbd v1.5.1PL2 Copyright (c) Steve Scherf et al.
# Submitted via: Synapstar 1.0 
# 
DISCID=d40b610e
DTITLE=Various Artist - SD057
DYEAR=1998
DGENRE=Country
TTITLE0=Jackson, Alan - Right On The Money
TTITLE1=McGraw, Tim - For A Little While
TTITLE2=Brooks, Garth - It's Your Song
TTITLE3=McEntire, Reba - Wrong Night
TTITLE4=Gill, Vince - Kindly Keep It Country
TTITLE5=Diamond Rio - Unbelievable
TTITLE6=Wilkinsons, The - Fly The Angel Song
TTITLE7=Messina, Jo Dee - Stand Beside Me
TTITLE8=Kinleys, The - Somebody's Out There Watching
TTITLE9=Wariner, Steve - Every Little Whisper
TTITLE10=Kershaw, Sammy - One Day Left To Live
TTITLE11=Peterson, Michael - By The Book
TTITLE12=Tippin, Aaron - For You I Will
TTITLE13=Warren Brothers, The - Guilty
EXTD=MediaType: Karaoke CD+G Producer: StarDisc
EXTT0=
EXTT1=
EXTT2=
EXTT3=
EXTT4=
EXTT5=
EXTT6=
EXTT7=
EXTT8=
EXTT9=
EXTT10=
EXTT11=
EXTT12=
EXTT13=
PLAYORDER=
